<?xml version="1.0" encoding="utf-8"?>
<!-- Generator: Adobe Illustrator 16.0.0, SVG Export Plug-In . SVG Version: 6.00 Build 0)  -->
<!DOCTYPE svg PUBLIC "-//W3C//DTD SVG 1.1//EN" "http://www.w3.org/Graphics/SVG/1.1/DTD/svg11.dtd">
<svg version="1.1" id="Layer_1" xmlns="http://www.w3.org/2000/svg" xmlns:xlink="http://www.w3.org/1999/xlink" x="0px" y="0px"
	 width="1219.5px" height="314.984px" viewBox="0 78.094 1219.5 314.984" enable-background="new 0 78.094 1219.5 314.984"
	 xml:space="preserve">
<g transform="translate(0.000000,1746.000000) scale(0.100000,-0.100000)">
	<path fill="#402875" d="M7631.545,16569.461c-9.287-2.949-18.594-5.494-21.123-5.908c-22.412-4.229-62.988-31.709-84.541-56.65
		c-23.672-27.891-39.316-64.244-43.115-100.596c-15.225-139.488,69.746-232.477,212.188-232.477
		c71.016,0,127.227,22.398,166.533,66.783c26.631,29.17,38.047,53.262,45.234,95.102c19.434,109.908-39.736,205.855-144.141,232.057
		C7727.922,16576.648,7656.916,16577.498,7631.545,16569.461z"/>
	<path fill="#402875" d="M3229.094,16063.508c-232.9-17.748-443.828-95.102-619.658-226.986
		c-214.307-160.615-366.475-376.621-434.951-617.969c-30.01-106.094-43.955-199.932-47.763-319.131
		c-8.877-295.879,68.486-552.021,235.019-774.785c51.563-68.896,169.922-188.096,237.129-238.398
		c161.045-121.318,330.117-191.475,538.926-224.023c81.152-12.686,300.957-13.955,380.42-2.119
		c226.973,34.238,413.809,114.551,581.201,249.385c54.521,43.975,145.4,135.264,188.516,188.945
		c117.93,148.369,195.703,317.021,231.631,501.738c18.174,94.248,21.563,135.674,21.563,263.33
		c0,104.404-1.699,129.346-10.156,185.986c-20.283,134.404-51.982,238.398-108.203,352.939
		c-123.008,252.354-345.332,463.691-598.525,570.215C3645.022,16047.443,3436.633,16079.572,3229.094,16063.508z
		 M3492.854,15690.271c164.854-30.43,294.609-97.217,405.781-207.539c145.4-144.561,224.863-322.51,243.467-543.154
		c19.863-243.467-46.494-472.988-186.406-644.18c-152.168-186.406-361.396-281.514-620.088-281.514
		c-142.021,0-260.371,26.211-375.342,82.852c-165.693,82.002-301.807,232.9-374.072,415.508
		c-41.006,103.975-60.449,213.457-60.449,344.912c0,161.045,27.471,287.432,90.459,413.389
		c117.93,235.02,327.578,387.188,584.99,423.535C3259.953,15702.537,3440.012,15699.998,3492.854,15690.271z"/>
	<path fill="#C80057" d="M5378.195,16063.508c-49.033-6.338-94.258-41.426-111.162-86.225
		c-4.648-12.266-100.176-501.738-212.617-1087.158c-155.547-813.252-203.74-1071.943-203.74-1096.035
		c0-54.951,27.061-98.906,74.824-122.578c31.279-15.205,142.441-38.467,184.717-38.467c53.672,0,99.746,27.9,124.268,75.664
		c8.877,17.754,421.836,2172.617,421.416,2200.938c-0.42,32.129-11.406,58.76-34.658,84.541
		c-27.891,30.434-54.102,42.27-120.469,54.951C5424.689,16064.354,5402.707,16066.467,5378.195,16063.508z"/>
	<path fill="#C80057" d="M1571.848,16058.01c-10.986-2.953-27.9-10.986-36.768-17.748
		c-15.645-11.416-997.549-1098.564-997.549-1104.482c0-1.27,20.713-30.439,46.494-64.678
		c57.061-76.504,1038.974-1186.484,1067.715-1206.768c24.512-17.754,42.686-22.402,84.111-22.402
		c106.523,0,183.877,55.361,207.549,148.779c12.256,46.924,0.41,102.705-31.709,151.318
		c-8.457,13.105-210.078,240.938-448.047,506.816c-239.238,267.129-431.142,485.234-430.303,488.203
		c1.27,2.949,154.707,185.977,341.113,406.621c186.826,220.645,346.611,412.119,355.479,426.074
		c54.951,83.691,53.691,180.479-2.529,243.047c-19.023,20.703-56.641,40.576-88.34,46.494
		C1607.776,16065.197,1597.639,16064.777,1571.848,16058.01z"/>
	<path fill="#C80057" d="M5993.635,16059.699c-47.773-10.141-91.729-45.645-113.281-92.143
		c-10.146-21.133-11.416-29.16-11.416-68.477c0-51.992,9.297-85.381,35.508-125.537c10.986-17.334,602.754-733.369,675.029-817.061
		c5.078-5.918-3.799-14.785-67.207-68.047c-40.156-34.238-288.701-254.043-552.451-489.473
		c-323.359-288.281-486.934-437.061-502.158-456.084c-35.928-46.074-51.992-101.025-43.535-149.639
		c13.525-78.613,73.555-137.793,159.355-158.076c39.307-8.877,86.23-6.768,111.592,5.918
		c11.836,5.498,262.49,227.402,653.057,576.543c488.623,437.49,650.508,584.58,705.039,641.65
		c38.887,40.566,70.586,74.805,70.586,76.074c0,2.539-950.195,1044.467-985.703,1080.82
		C6088.732,16055.9,6044.777,16070.271,5993.635,16059.699z"/>
	<path fill="#402875" d="M175.286,16050.828c-30.01-11.416-61.709-41.002-76.084-70.586l-11.836-24.092l-1.27-1096.875
		c-0.84-982.344-0.42-1098.574,5.498-1116.328c16.064-47.764,53.682-82.422,103.135-95.107c21.133-5.068,43.115-6.338,103.564-5.068
		c72.275,1.27,77.773,2.109,100.176,12.256c30.85,14.365,54.102,35.928,69.736,63.828l12.266,22.402v1109.561v1109.551
		l-9.727,19.873c-13.105,26.205-37.617,51.143-65.088,65.518c-22.402,11.83-22.832,11.83-115.4,12.68
		C205.295,16059.285,195.159,16058.855,175.286,16050.828z"/>
	<path fill="#402875" d="M8508.029,16047.023c-43.955-9.301-83.691-40.576-102.715-80.307l-10.986-23.252l-1.279-1097.725
		l-0.84-1097.715l8.877-24.102c10.986-29.59,40.156-61.709,67.627-75.664c10.566-5.488,32.559-12.246,48.193-15.215
		c39.307-6.758,154.277-2.949,178.789,5.918c40.586,15.215,71.865,46.504,88.77,88.34c6.768,16.914,7.188,59.6,8.457,545.693
		c0.85,413.389,2.109,527.1,6.338,526.67c2.539,0,226.563-250.225,497.5-555.83c270.947-305.605,500.049-563.447,509.346-573.174
		c27.051-27.461,56.221-39.307,99.336-38.887c63.398,0,113.701,18.604,154.697,57.49c42.266,39.736,58.76,80.732,55.801,138.643
		c-1.699,33.809-3.389,40.996-19.443,73.555c-14.375,28.73-29.6,49.023-73.975,98.477
		c-30.439,34.238-227.412,254.463-437.061,488.633c-229.521,256.152-381.68,429.453-381.68,434.521
		c0,4.648,144.131,178.799,341.523,412.119c187.676,221.914,348.291,415.078,356.748,429.453
		c28.75,46.924,34.658,67.637,35.088,119.619c0,41.85-1.27,49.033-11.416,70.596c-39.307,84.111-144.141,120.463-213.457,73.965
		c-14.375-9.717-143.711-161.045-463.262-541.885c-243.896-290.391-445.947-528.779-449.326-529.619
		c-4.648-1.27-5.908,72.266-6.758,488.203c-1.27,450.156-1.689,490.732-8.457,507.637c-16.904,41.855-48.184,72.705-88.77,88.35
		C8674.563,16049.559,8538.039,16053.367,8508.029,16047.023z"/>
	<path fill="#402875" d="M11153.204,16046.6c-108.203-9.297-224.023-43.115-332.646-96.377
		c-256.571-126.377-390.565-283.623-423.114-497.08c-8.027-51.563-5.918-176.26,4.229-229.512
		c15.215-82.432,46.074-160.205,84.531-213.887c20.293-28.32,65.947-74.395,95.537-96.797
		c59.6-44.805,190.635-108.633,296.718-144.141c93.848-31.27,164.004-45.645,306.875-63.818
		c259.961-32.119,394.785-98.486,454.814-223.174c27.9-57.5,33.818-83.691,33.818-148.789c-0.42-49.883-1.27-58.76-13.105-93.848
		c-32.129-96.787-88.77-158.506-182.178-197.813c-41.426-17.324-107.793-33.809-162.314-40.576
		c-56.211-6.768-236.289-2.539-295.039,6.338c-131.875,21.133-244.735,59.6-342.372,118.359
		c-63.408,37.617-96.797,44.375-142.441,27.051c-20.723-7.617-32.549-16.914-77.773-62.139
		c-46.084-45.654-54.961-56.641-62.988-78.623c-18.174-48.184-11.416-94.688,19.443-135.684
		c24.512-32.119,166.543-113.281,272.217-155.967c106.094-42.686,229.511-69.326,380.419-82.842
		c75.654-6.348,240.938-6.768,293.76,0c204.59,25.352,376.201,98.906,531.318,228.672
		c154.287,128.496,231.631,281.934,231.631,458.613c0,188.516-56.65,342.793-165.684,451.016
		c-74.814,73.965-227.832,157.656-375.342,205.41c-87.5,28.33-145.83,41.426-269.258,60.029
		c-148.789,22.822-239.668,48.193-319.98,90.029c-71.855,37.617-119.199,85.811-142.441,145.41
		c-12.686,33.389-16.064,101.016-6.348,142.451c8.887,37.197,33.818,90.449,58.76,123.848
		c47.764,64.248,132.305,107.783,250.225,129.336c43.545,7.607,66.367,8.877,162.734,9.307c117.51,0,138.232-2.119,217.266-21.563
		c54.531-13.525,109.902-36.777,164.004-68.477c95.957-56.641,136.953-51.563,218.115,26.211
		c47.334,45.645,64.248,69.316,74.385,103.555c8.457,28.75,8.457,43.955,0.43,70.586c-13.945,47.344-39.316,71.436-129.346,123.852
		c-121.738,70.586-252.344,108.209-431.563,124.693C11340.46,16048.289,11208.155,16051.668,11153.204,16046.6z"/>
	<path fill="#402875" d="M7584.211,16032.648c-51.152-16.479-87.92-59.174-98.066-114.545c-6.338-35.078-6.758-2141.768,0-2176.846
		c9.297-51.572,43.965-94.258,89.609-111.592c22.402-8.027,32.549-8.877,121.309-8.877c88.77,0,98.906,0.85,121.309,9.307
		c32.549,11.836,64.258,42.266,79.893,76.504l12.266,26.211l1.26,1079.961c0.85,794.658,0,1086.729-3.379,1105.332
		c-9.727,49.027-40.156,89.189-83.691,109.053c-18.594,8.447-27.471,9.301-121.309,10.146
		C7628.166,16038.152,7597.316,16036.873,7584.211,16032.648z"/>
</g>
</svg>
