<svg xmlns="http://www.w3.org/2000/svg" width="1203.877" height="295.425" viewBox="0 0 1203.877 295.425">
  <g id="kodiks-logo-dark" transform="translate(-428 -101)">
    <g id="kodiks-logo" transform="translate(419.423 1758.499)">
      <path id="Path_8" data-name="Path 8" d="M763.154-1656.95c-.929.295-1.859.549-2.112.591-2.241.423-6.3,3.171-8.454,5.665a18.891,18.891,0,0,0-4.312,10.06c-1.522,13.949,6.975,23.248,21.219,23.248,7.1,0,12.723-2.24,16.653-6.678a16.5,16.5,0,0,0,4.523-9.51c1.943-10.991-3.974-20.586-14.414-23.206C772.792-1657.66,765.692-1657.75,763.154-1656.95Z" fill="#9e9e9e"/>
      <path id="Path_9" data-name="Path 9" d="M322.909-1606.35c-23.29,1.775-44.383,9.51-61.966,22.7-21.431,16.062-36.648,37.662-43.5,61.8a125.079,125.079,0,0,0-4.776,31.913c-.888,29.588,6.849,55.2,23.5,77.479,5.156,6.89,16.992,18.81,23.713,23.84,16.1,12.132,33.012,19.147,53.893,22.4,8.115,1.269,30.1,1.4,38.042.212,22.7-3.424,41.381-11.455,58.12-24.938a159.335,159.335,0,0,0,18.852-18.895,115.186,115.186,0,0,0,23.163-50.174c1.817-9.425,2.156-13.567,2.156-26.333,0-10.44-.17-12.935-1.016-18.6a113.769,113.769,0,0,0-10.82-35.294c-12.3-25.235-34.533-46.369-59.853-57.021C364.5-1604.74,343.663-1607.96,322.909-1606.35Zm26.376,37.32c16.485,3.043,29.461,9.722,40.578,20.754,14.54,14.456,22.486,32.251,24.347,54.315,1.986,24.347-4.649,47.3-18.641,64.418-15.217,18.641-36.14,28.151-62.009,28.151-14.2,0-26.037-2.621-37.534-8.285-16.569-8.2-30.181-23.29-37.407-41.551-4.1-10.4-6.045-21.346-6.045-34.491,0-16.1,2.747-28.743,9.046-41.339,11.793-23.5,32.758-38.719,58.5-42.354C325.995-1570.25,344-1570,349.285-1569.03Z" fill="#9e9e9e"/>
      <path id="Path_10" data-name="Path 10" d="M537.819-1606.35a14.111,14.111,0,0,0-11.116,8.622c-.465,1.227-10.018,50.174-21.262,108.716-15.555,81.325-20.374,107.194-20.374,109.6a13.116,13.116,0,0,0,7.482,12.258c3.128,1.521,14.244,3.847,18.472,3.847a13.659,13.659,0,0,0,12.427-7.566c.888-1.775,42.184-217.262,42.142-220.094a12.26,12.26,0,0,0-3.466-8.454c-2.789-3.043-5.41-4.227-12.047-5.5C542.469-1606.44,540.271-1606.65,537.819-1606.35Z" fill="#9e9e9e"/>
      <path id="Path_11" data-name="Path 11" d="M157.185-1605.8a12.852,12.852,0,0,0-3.677,1.775c-1.564,1.142-99.755,109.856-99.755,110.448,0,.127,2.071,3.044,4.649,6.468,5.706,7.65,103.9,118.648,106.771,120.677,2.451,1.775,4.269,2.24,8.411,2.24,10.652,0,18.388-5.536,20.755-14.878,1.226-4.692.041-10.271-3.171-15.132-.846-1.311-21.008-24.094-44.8-50.682-23.924-26.713-43.114-48.523-43.03-48.82.127-.295,15.471-18.6,34.111-40.662,18.683-22.064,34.661-41.212,35.548-42.607,5.5-8.369,5.369-18.048-.253-24.3a17.833,17.833,0,0,0-8.834-4.649A11.947,11.947,0,0,0,157.185-1605.8Z" fill="#9e9e9e"/>
      <path id="Path_12" data-name="Path 12" d="M599.363-1605.97a16.719,16.719,0,0,0-11.328,9.214c-1.015,2.113-1.142,2.916-1.142,6.848,0,5.2.93,8.538,3.551,12.554,1.1,1.733,60.275,73.337,67.5,81.706.508.592-.38,1.479-6.721,6.8-4.016,3.424-28.87,25.4-55.245,48.947-32.336,28.828-48.693,43.706-50.216,45.608-3.593,4.607-5.2,10.1-4.354,14.964,1.353,7.861,7.356,13.779,15.936,15.808,3.931.888,8.623.677,11.159-.592,1.184-.55,26.249-22.74,65.306-57.654,48.862-43.749,65.051-58.458,70.5-64.165,3.889-4.057,7.059-7.48,7.059-7.607,0-.254-95.019-104.447-98.57-108.082C608.873-1605.59,604.478-1607.03,599.363-1605.97Z" fill="#9e9e9e"/>
      <path id="Path_13" data-name="Path 13" d="M17.529-1605.08a15.438,15.438,0,0,0-7.608,7.059l-1.184,2.409L8.61-1485.924c-.084,98.234-.042,109.857.55,111.633a14.457,14.457,0,0,0,10.314,9.511c2.113.507,4.312.634,10.356.507,7.228-.127,7.777-.211,10.018-1.226a15.082,15.082,0,0,0,6.974-6.383l1.227-2.24v-221.911l-.973-1.987a15.688,15.688,0,0,0-6.509-6.552c-2.24-1.183-2.283-1.183-11.54-1.268C20.53-1605.93,19.516-1605.89,17.529-1605.08Z" fill="#9e9e9e"/>
      <path id="Path_14" data-name="Path 14" d="M850.8-1604.7a15.145,15.145,0,0,0-10.271,8.031l-1.1,2.325-.128,109.772-.084,109.771.888,2.41a15.542,15.542,0,0,0,6.763,7.566,21.666,21.666,0,0,0,4.819,1.521c3.931.676,15.428.295,17.879-.592a15.361,15.361,0,0,0,8.877-8.834c.677-1.691.719-5.96.846-54.569.085-41.339.211-52.71.634-52.667.254,0,22.656,25.022,49.75,55.583s50,56.345,50.935,57.317c2.705,2.746,5.622,3.931,9.934,3.889,6.34,0,11.37-1.86,15.47-5.749a16.189,16.189,0,0,0,5.58-13.864,13.848,13.848,0,0,0-1.944-7.355c-1.437-2.873-2.96-4.9-7.4-9.848-3.044-3.424-22.741-25.446-43.706-48.863-22.952-25.615-38.168-42.945-38.168-43.452,0-.465,14.413-17.88,34.152-41.212,18.768-22.191,34.829-41.508,35.675-42.945,2.875-4.692,3.466-6.764,3.509-11.962,0-4.185-.127-4.9-1.142-7.06-3.931-8.411-14.414-12.046-21.346-7.4-1.437.972-14.371,16.1-46.326,54.188-24.39,29.039-44.595,52.878-44.933,52.962-.465.127-.591-7.227-.676-48.82-.127-45.016-.169-49.073-.846-50.764a15.479,15.479,0,0,0-8.877-8.835C867.456-1604.96,853.8-1605.34,850.8-1604.7Z" fill="#9e9e9e"/>
      <path id="Path_15" data-name="Path 15" d="M1115.32-1604.66a95.659,95.659,0,0,0-33.265,9.638c-25.657,12.638-39.057,28.362-42.312,49.708-.8,5.156-.592,17.626.423,22.951,1.521,8.243,4.607,16.021,8.453,21.389a57.42,57.42,0,0,0,9.554,9.68c5.96,4.48,19.063,10.863,29.672,14.414,9.385,3.127,16.4,4.564,30.688,6.382,26,3.212,39.479,9.849,45.481,22.317,2.79,5.75,3.382,8.369,3.382,14.879-.042,4.988-.127,5.876-1.311,9.385-3.213,9.679-8.877,15.851-18.218,19.781a69.651,69.651,0,0,1-16.231,4.058c-5.621.677-23.629.254-29.5-.634-13.187-2.113-24.474-5.96-34.237-11.836-6.341-3.762-9.68-4.437-14.244-2.705-2.072.762-3.255,1.691-7.777,6.214-4.608,4.565-5.5,5.664-6.3,7.862a13.567,13.567,0,0,0,1.944,13.568c2.451,3.212,16.654,11.328,27.222,15.6,10.609,4.269,22.951,6.933,38.042,8.284,7.565.635,24.094.677,29.376,0,20.459-2.535,37.62-9.891,53.132-22.867,15.429-12.85,23.163-28.193,23.163-45.861,0-18.852-5.665-34.279-16.568-45.1-7.481-7.4-22.783-15.766-37.534-20.541-8.75-2.833-14.583-4.143-26.926-6-14.879-2.282-23.967-4.819-32-9-7.186-3.762-11.92-8.581-14.244-14.541-1.269-3.339-1.606-10.1-.635-14.245a39.113,39.113,0,0,1,5.876-12.385c4.776-6.425,13.23-10.778,25.022-12.934,4.354-.761,6.637-.888,16.273-.931,11.751,0,13.823.212,21.727,2.156a62.437,62.437,0,0,1,16.4,6.848c9.6,5.664,13.7,5.156,21.812-2.621,4.733-4.564,6.425-6.932,7.438-10.355a10.387,10.387,0,0,0,.043-7.059c-1.395-4.734-3.932-7.144-12.935-12.385-12.174-7.059-25.234-10.821-43.156-12.469C1134.05-1604.83,1120.82-1605.17,1115.32-1604.66Z" fill="#9e9e9e"/>
      <path id="Path_16" data-name="Path 16" d="M758.421-1603.26a14.484,14.484,0,0,0-9.807,11.454c-.634,3.508-.676,214.177,0,217.685a14.644,14.644,0,0,0,8.961,11.159c2.24.8,3.255.888,12.131.888s9.891-.085,12.131-.931a15.146,15.146,0,0,0,7.989-7.65l1.227-2.621.126-108c.085-79.466,0-108.673-.338-110.533a14.964,14.964,0,0,0-8.369-10.905c-1.859-.845-2.747-.93-12.131-1.015C762.817-1603.82,759.732-1603.69,758.421-1603.26Z" fill="#9e9e9e"/>
    </g>
  </g>
</svg>
